<?xml version="1.0" encoding="UTF-8"?>
<svg xmlns="http://www.w3.org/2000/svg" version="1.1" viewBox="0 0 20 20">
  <defs>
    <style>
      .cls-1 {
        fill: #fff;
      }
    </style>
  </defs>
  <!-- Generator: Adobe Illustrator 28.6.0, SVG Export Plug-In . SVG Version: 1.2.0 Build 709)  -->
  <g>
    <g id="Layer_1">
      <g id="SaFdJs">
        <path class="cls-1" d="M10,6.7c-1.8,0-3.2,1.5-3.2,3.2,0,1.8,1.4,3.2,3.2,3.2s3.2-1.5,3.2-3.2-1.5-3.2-3.2-3.2ZM10,6.7c-1.8,0-3.2,1.5-3.2,3.2,0,1.8,1.4,3.2,3.2,3.2s3.2-1.5,3.2-3.2-1.5-3.2-3.2-3.2ZM19.8,5.4c-.2-1.9-1-3.3-2.6-4.3-1-.6-2.1-.8-3.2-.8,0,0-7.1,0-8.6,0-1.2,0-2.3.5-3.2,1.3C.8,2.6.3,4.1.2,5.7c0,2.7,0,8.9,0,9.2.2,1.5.9,2.8,2.1,3.8,1.1.8,2.3,1.1,3.6,1.1h7.9c.4,0,.9,0,1.3-.1,1.6-.3,2.9-1.1,3.8-2.5.6-1,.8-2.1.8-3.2,0,0,0-8.2,0-8.6ZM10,15c-2.8,0-5-2.3-5-5s2.3-5.1,5-5c2.8,0,5,2.3,5,5s-2.3,5.1-5,5.1ZM15.2,5.9c-.6,0-1.1-.5-1.1-1.1s.5-1.1,1.2-1.1c.6,0,1.1.5,1.1,1.2,0,.6-.5,1.1-1.2,1.1ZM10,6.7c-1.8,0-3.2,1.5-3.2,3.2,0,1.8,1.4,3.2,3.2,3.2s3.2-1.5,3.2-3.2-1.5-3.2-3.2-3.2ZM10,6.7c-1.8,0-3.2,1.5-3.2,3.2,0,1.8,1.4,3.2,3.2,3.2s3.2-1.5,3.2-3.2-1.5-3.2-3.2-3.2ZM10,6.7c-1.8,0-3.2,1.5-3.2,3.2,0,1.8,1.4,3.2,3.2,3.2s3.2-1.5,3.2-3.2-1.5-3.2-3.2-3.2Z"/>
      </g>
    </g>
  </g>
</svg>