<?xml version="1.0" encoding="utf-8"?>
<svg version="1.1" xmlns="http://www.w3.org/2000/svg" xmlns:xlink="http://www.w3.org/1999/xlink" x="0px" y="0px" viewBox="0 0 20 20" xml:space="preserve">
	<path fill="#fff" d="M4.7,6.4h-4c-0.2,0-0.3,0.1-0.3,0.3v12.9c0,0.2,0.1,0.3,0.3,0.3h4C4.8,20,5,19.8,5,19.7V6.8C5,6.6,4.8,6.4,4.7,6.4 C4.7,6.4,4.7,6.4,4.7,6.4z M2.6,0C1.2,0,0,1.2,0,2.7s1.2,2.6,2.6,2.6s2.6-1.2,2.6-2.6S4.1,0,2.6,0L2.6,0z M14.9,6.1 c-1.3,0-2.6,0.5-3.5,1.5V6.8c0-0.2-0.1-0.3-0.3-0.3H7.2C7,6.4,6.8,6.6,6.8,6.8v12.9C6.8,19.8,7,20,7.2,20h4c0.2,0,0.3-0.1,0.3-0.3 v-6.4c0-2.2,0.6-3,2.1-3c1.6,0,1.8,1.3,1.8,3.1v6.3c0,0.2,0.1,0.3,0.3,0.3h4c0.2,0,0.3-0.1,0.3-0.3v-7.1C20,9.4,19.4,6.1,14.9,6.1z"/>
</svg>