<?xml version="1.0" encoding="UTF-8"?>
<svg id="Layer_1" xmlns="http://www.w3.org/2000/svg" version="1.1" viewBox="0 0 20 20">
  <!-- Generator: Adobe Illustrator 29.0.0, SVG Export Plug-In . SVG Version: 2.1.0 Build 186)  -->
  <defs>
    <style>
      .st0 {
        fill: #fff;
      }
    </style>
  </defs>
  <g id="B7txdX">
    <path class="st0" d="M7.2,19.9c-3.8-.2-6.5-4-5.6-7.7s3.5-4.9,6.4-4.7.6,0,.6,0v3.7c-1.3-.4-2.6,0-3.3,1.1s-.6,2.3.1,3.2c1.2,1.6,3.6,1.4,4.7-.3s.3-1.1.3-1.9c0-3.5,0-7.1,0-10.7s0-1.8,0-2.7h3.2c0,1.6.8,3.1,2.1,4s1.8.8,2.8.9v3.3c-1.5,0-2.9-.4-4.1-1.1s-.4-.3-.7-.4v7.1c-.1,3-2.4,5.6-5.5,6h-.5c-.2,0-.5,0-.7,0Z"/>
  </g>
</svg>